<svg xmlns="http://www.w3.org/2000/svg" width="900" height="520" viewBox="0 0 900 520"><defs><linearGradient id="g" x1="0" x2="1" y1="0" y2="1"><stop stop-color="#061625"/><stop offset="1" stop-color="#0a3355"/></linearGradient><filter id="glow"><feGaussianBlur stdDeviation="4" result="b"/><feMerge><feMergeNode in="b"/><feMergeNode in="SourceGraphic"/></feMerge></filter></defs><rect width="900" height="520" fill="url(#g)"/><path d="M0 380 C200 300 330 470 520 350 S720 260 900 320" fill="none" stroke="#00aeef" stroke-opacity=".28" stroke-width="4"/><path d="M0 120 C160 180 260 60 430 130 S710 260 900 160" fill="none" stroke="#4dcfff" stroke-opacity=".18" stroke-width="3"/><g opacity=".25" stroke="#4dcfff"><path d="M80 80h740M80 160h740M80 240h740M80 320h740M80 400h740"/><path d="M140 40v440M260 40v440M380 40v440M500 40v440M620 40v440M740 40v440"/></g><circle cx="180" cy="150" r="6" fill="#00aeef" filter="url(#glow)"/><circle cx="380" cy="240" r="6" fill="#00aeef" filter="url(#glow)"/><circle cx="650" cy="170" r="6" fill="#00aeef" filter="url(#glow)"/><g transform="translate(450 260)"><path d="M-120 40h150v-90h-150zM30 40h75l45 0v-55l-38-45H30z" fill="none" stroke="#eaf7ff" stroke-width="10" stroke-linejoin="round"/><circle cx="-70" cy="58" r="22" fill="none" stroke="#00aeef" stroke-width="9"/><circle cx="96" cy="58" r="22" fill="none" stroke="#00aeef" stroke-width="9"/><path d="M-95-92h110M-95-120h170" stroke="#4dcfff" stroke-width="8" stroke-linecap="round"/></g><text x="48" y="462" fill="#eaf7ff" font-family="Arial, sans-serif" font-size="34" font-weight="700">Logistics Security</text></svg>